<?xml version="1.0" standalone="no"?>
<!DOCTYPE svg PUBLIC "-//W3C//DTD SVG 20010904//EN"
 "http://www.w3.org/TR/2001/REC-SVG-20010904/DTD/svg10.dtd">
<svg version="1.0" xmlns="http://www.w3.org/2000/svg"
 width="1010.000000pt" height="1010.000000pt" viewBox="0 0 1010.000000 1010.000000"
 preserveAspectRatio="xMidYMid meet">
<metadata>
Created by potrace 1.14, written by Peter Selinger 2001-2017
</metadata>
<g transform="translate(0.000000,1010.000000) scale(0.100000,-0.100000)"
fill="#000000" stroke="none">
<path d="M4270 9743 c-19 -3 -40 -9 -47 -15 -7 -5 -27 -12 -45 -14 -18 -3 -42
-9 -53 -14 -11 -5 -49 -21 -84 -35 -35 -15 -81 -37 -102 -51 -21 -13 -41 -24
-43 -24 -4 0 -80 -48 -126 -80 -203 -139 -194 -135 -297 -132 -32 2 -51 10
-78 33 -19 17 -35 38 -35 46 0 26 -34 73 -52 73 -22 0 -58 -38 -58 -62 0 -10
-6 -29 -14 -41 -9 -13 -13 -45 -12 -79 l2 -58 -61 -1 c-91 -2 -131 -6 -152
-17 -11 -6 -37 -13 -60 -15 -22 -3 -49 -10 -59 -16 -10 -5 -40 -19 -66 -30
-114 -47 -260 -175 -299 -261 -11 -25 -25 -53 -30 -62 -5 -10 -9 -28 -9 -40
-1 -13 -7 -34 -15 -48 -8 -14 -14 -42 -15 -62 0 -31 -5 -40 -30 -53 -16 -8
-40 -15 -54 -15 -13 0 -31 -7 -40 -15 -8 -8 -23 -15 -34 -15 -11 0 -25 -7 -32
-15 -7 -8 -18 -15 -26 -15 -12 0 -83 -37 -94 -50 -3 -3 -24 -17 -47 -32 -56
-37 -154 -134 -183 -183 -13 -22 -30 -46 -37 -53 -7 -7 -13 -21 -13 -30 0 -9
-7 -26 -15 -36 -8 -11 -15 -30 -15 -42 0 -12 -4 -24 -9 -26 -5 -1 -12 -32 -16
-68 -4 -36 -12 -74 -18 -85 -12 -22 -13 -202 -2 -292 9 -69 9 -59 0 -153 -4
-41 -8 -89 -9 -105 -3 -39 -47 -133 -78 -165 -38 -39 -86 -60 -138 -60 -26 0
-52 -6 -58 -12 -35 -44 49 -162 146 -204 41 -17 51 -29 33 -36 -39 -14 -209
-182 -217 -214 -3 -13 -10 -24 -15 -24 -5 0 -9 -6 -9 -12 -1 -7 -9 -31 -19
-52 -25 -52 -27 -288 -4 -351 34 -91 56 -139 69 -152 8 -8 14 -20 14 -26 0 -7
13 -26 28 -43 16 -17 36 -47 45 -67 20 -42 22 -135 4 -162 -7 -11 -15 -40 -16
-64 -1 -24 -9 -63 -16 -87 -15 -51 -13 -138 7 -209 15 -56 73 -165 88 -165 6
0 10 -5 10 -11 0 -6 19 -27 42 -47 23 -20 59 -54 80 -75 l38 -37 -5 -79 c-3
-44 -8 -97 -11 -118 -8 -51 -9 -91 -1 -133 3 -19 9 -80 13 -135 4 -55 13 -117
20 -139 8 -21 14 -55 14 -76 0 -21 7 -50 15 -66 13 -25 13 -30 -3 -48 -15 -17
-15 -19 -1 -13 13 4 18 -2 22 -21 10 -51 30 -117 45 -152 9 -19 21 -48 28 -65
56 -132 134 -262 201 -335 13 -14 26 -33 29 -42 3 -10 10 -18 15 -18 5 0 9 -5
9 -10 0 -14 55 -91 97 -137 18 -19 33 -38 33 -41 1 -10 87 -72 100 -72 6 0 21
-6 33 -14 12 -8 43 -17 69 -20 26 -2 53 -8 59 -12 11 -7 32 -10 76 -13 17 -1
23 -9 28 -38 3 -21 10 -46 15 -55 6 -10 12 -45 15 -79 3 -34 10 -70 16 -81 6
-11 13 -43 16 -72 3 -28 9 -55 13 -61 5 -5 12 -28 16 -50 4 -22 13 -49 20 -60
8 -11 14 -25 14 -33 0 -21 92 -206 107 -215 7 -4 13 -14 13 -20 0 -7 7 -22 15
-32 8 -11 37 -49 64 -85 26 -36 73 -91 104 -122 30 -32 67 -72 82 -90 40 -48
147 -157 199 -202 42 -37 44 -41 30 -57 -9 -10 -30 -21 -48 -25 -17 -3 -39
-12 -50 -20 -10 -7 -25 -10 -32 -7 -8 3 -14 0 -14 -6 0 -6 -9 -11 -19 -11 -30
0 -51 -11 -51 -26 0 -8 -6 -14 -13 -14 -28 0 -100 -135 -117 -219 -28 -137
-38 -169 -57 -190 -30 -32 -85 -147 -90 -190 -3 -20 -9 -44 -15 -54 -5 -10
-12 -37 -14 -60 -3 -23 -8 -44 -10 -47 -6 -5 -81 -25 -159 -41 -27 -6 -57 -15
-67 -20 -9 -5 -41 -11 -71 -14 -65 -5 -80 -8 -87 -16 -3 -4 -28 -9 -56 -13
-28 -3 -64 -13 -80 -21 -16 -8 -34 -15 -41 -15 -15 0 -77 -33 -81 -42 -2 -5
-9 -8 -16 -8 -7 0 -23 -9 -36 -20 -13 -11 -26 -20 -30 -20 -9 0 -131 -121
-150 -148 -28 -42 -60 -97 -70 -122 -5 -14 -14 -33 -20 -42 -5 -9 -12 -32 -15
-50 -3 -18 -10 -37 -14 -43 -5 -5 -12 -32 -16 -60 -3 -27 -10 -52 -16 -55 -5
-4 -12 -33 -15 -66 -4 -32 -10 -64 -15 -70 -5 -6 -11 -32 -14 -58 -3 -26 -11
-59 -17 -74 -6 -15 -13 -49 -15 -75 -3 -26 -11 -60 -19 -75 l-14 -27 3287 -3
c1807 -1 3289 0 3292 3 3 3 -1 20 -8 38 -7 18 -17 55 -20 82 -4 28 -12 59 -18
70 -6 11 -13 42 -16 69 -4 27 -10 52 -15 55 -5 3 -12 30 -15 60 -4 29 -10 58
-15 65 -5 6 -13 34 -17 61 -4 28 -11 55 -17 62 -5 7 -12 27 -15 45 -3 18 -11
41 -19 52 -8 11 -14 28 -14 38 0 10 -4 18 -9 18 -5 0 -13 10 -17 22 -16 50
-100 150 -182 216 -41 34 -186 111 -209 112 -6 0 -13 4 -15 9 -1 6 -30 13 -63
16 -33 4 -65 11 -71 16 -7 5 -45 12 -85 14 -41 3 -85 9 -99 14 -14 5 -54 14
-89 20 -36 6 -68 16 -73 23 -4 7 -8 42 -8 78 0 41 -6 72 -15 84 -8 11 -15 27
-15 36 0 19 -45 108 -84 168 -21 30 -30 58 -33 99 -3 32 -11 73 -19 92 -8 18
-14 42 -14 52 0 19 -115 140 -154 161 -77 42 -175 87 -203 93 -54 11 -49 31
24 98 37 34 78 75 92 91 14 17 56 60 92 98 36 37 64 70 61 72 -2 2 6 7 17 11
12 3 21 13 21 21 0 8 5 14 11 14 13 0 33 21 37 40 2 7 17 31 34 52 26 33 32
37 47 26 14 -12 15 -11 2 4 -12 16 -10 22 13 52 14 19 26 39 26 45 0 6 4 11 8
11 4 0 27 39 51 88 23 48 46 94 51 103 5 9 12 33 15 53 4 20 11 36 16 36 4 0
11 21 15 48 3 26 10 54 15 64 5 9 11 38 14 66 3 27 12 68 20 92 8 23 15 57 15
74 0 28 20 100 31 110 2 2 22 6 44 8 22 3 49 9 60 15 11 5 38 11 59 12 41 3
135 48 175 84 26 25 122 149 164 215 15 23 32 42 37 42 6 0 10 5 10 11 0 6 19
36 43 67 24 31 52 73 63 92 10 19 22 37 25 40 6 5 37 71 64 135 9 22 23 54 32
71 8 18 17 49 20 70 3 22 10 45 15 52 6 7 13 31 15 55 2 23 8 53 13 67 5 14
11 51 13 83 3 32 10 63 16 70 16 20 20 77 21 287 0 193 -3 238 -19 269 -5 9
-12 35 -16 59 -4 23 -11 42 -16 42 -13 0 -11 74 1 86 6 6 13 42 16 80 11 131
43 229 94 284 86 93 118 140 172 245 l40 80 0 115 c0 81 -5 126 -16 152 -9 21
-16 48 -16 60 0 13 -7 32 -15 42 -8 11 -15 27 -15 37 0 9 -7 22 -15 29 -8 7
-15 21 -15 30 0 10 -3 20 -8 22 -4 2 -27 37 -51 78 -25 41 -47 77 -51 80 -4 3
-12 20 -18 39 -10 28 -9 37 6 60 26 36 62 114 62 132 0 8 7 24 15 36 27 38 25
321 -2 375 -7 15 -13 38 -13 51 0 14 -7 30 -15 37 -8 7 -15 21 -15 31 0 9 -7
24 -15 33 -8 8 -15 19 -15 26 0 13 -90 131 -144 187 -39 42 -39 43 -21 63 10
11 23 20 30 20 18 0 85 60 101 92 10 20 12 34 5 47 -9 16 -23 19 -88 19 -43 1
-87 2 -99 4 -26 4 -124 105 -124 128 0 10 -7 20 -15 24 -8 3 -15 14 -15 25 0
11 -8 34 -17 53 -35 71 -41 84 -48 116 -3 17 -11 32 -16 32 -5 0 -9 12 -9 28
0 15 -6 36 -14 47 -7 11 -16 37 -20 58 -4 20 -11 37 -16 37 -6 0 -10 7 -10 15
0 8 -9 32 -20 52 -11 21 -20 43 -20 50 0 6 -4 13 -8 15 -4 2 -19 21 -32 43
-75 124 -220 241 -322 260 -13 3 -34 9 -48 14 -24 10 -86 20 -122 21 -15 0
-18 10 -18 63 0 35 -7 86 -15 113 -8 27 -15 59 -15 72 0 12 -4 22 -9 22 -5 0
-12 12 -15 26 -9 35 -52 73 -76 67 -28 -7 -33 -34 -15 -78 21 -49 12 -77 -14
-44 -10 13 -20 29 -22 36 -8 23 -182 213 -195 213 -2 0 -17 12 -33 28 -31 30
-55 47 -88 62 -13 5 -23 14 -23 20 0 5 -11 10 -25 10 -13 0 -28 7 -33 16 -5 8
-15 16 -23 18 -8 1 -29 10 -46 19 -18 10 -33 15 -33 11 0 -3 -11 1 -24 9 -13
9 -36 18 -51 21 -15 3 -33 10 -40 16 -7 6 -33 13 -56 16 -24 3 -49 10 -56 15
-6 6 -45 12 -87 14 -41 2 -84 6 -95 10 -46 14 -74 17 -224 19 -110 2 -164 -1
-181 -9 -13 -7 -51 -15 -85 -19 -34 -4 -74 -11 -89 -17 -15 -6 -47 -13 -72
-16 -25 -3 -52 -9 -61 -14 -9 -5 -36 -11 -58 -14 -23 -3 -52 -10 -64 -17 -12
-6 -35 -13 -50 -14 -16 -2 -43 -9 -60 -18 -47 -22 -191 -19 -269 6 -34 10 -65
22 -68 27 -3 4 -17 11 -32 15 -16 3 -28 11 -28 16 0 6 -8 10 -17 10 -10 0 -31
7 -46 15 -15 8 -45 17 -65 21 -20 3 -50 12 -67 19 -29 13 -299 18 -385 8z"/>
</g>
</svg>
